<svg xmlns="http://www.w3.org/2000/svg" width="180" height="180" viewBox="0 0 180 180">
  <style>
    :root { color-scheme: light dark; }
    @media (prefers-color-scheme: light) {
      .bg { fill: #000000; }
      .fg { fill: #ffffff; }
    }
    @media (prefers-color-scheme: dark) {
      .bg { fill: #ffffff; }
      .fg { fill: #000000; }
    }
  </style>
  <rect class="bg" x="0" y="0" width="180" height="180" rx="24"/>
  <g class="fg" transform="translate(20, 32)">
    <path d="M40 20c-18 0-32 14-32 32s14 32 32 32c6.9 0 13.3-2.1 18.6-5.7l-6.9-10.3c-3.3 2.2-7.3 3.5-11.6 3.5-11.6 0-21-9.4-21-21s9.4-21 21-21c4.2 0 8.1 1.3 11.4 3.4l7.1-10.4C53.5 22 47 20 40 20Z"/>
    <path d="M82 21h13v42h22v12H82V21Z"/>
    <path d="M123 21h13v22l18-22h14l-19 22 21 32h-14l-15-22-5 6v16h-13V21Z"/>
  </g>
</svg>
